<mxfile host="app.diagrams.net" agent="Mozilla/5.0 (Windows NT 10.0; Win64; x64) AppleWebKit/537.36 (KHTML, like Gecko) Chrome/131.0.0.0 Safari/537.36 Edg/131.0.0.0" version="24.8.6">
  <diagram name="Pagina-1" id="oLkShUtK19o7Q4TDrU9I">
    <mxGraphModel dx="1426" dy="781" grid="1" gridSize="10" guides="1" tooltips="1" connect="1" arrows="1" fold="1" page="1" pageScale="1" pageWidth="1169" pageHeight="827" math="0" shadow="0">
      <root>
        <mxCell id="0" />
        <mxCell id="1" parent="0" />
        <mxCell id="pfGqG3Exwj4eZ-6yCUfs-1" value="ESP-32&lt;div&gt;&lt;br&gt;&lt;/div&gt;" style="rounded=0;whiteSpace=wrap;html=1;" vertex="1" parent="1">
          <mxGeometry x="470" y="480" width="240" height="160" as="geometry" />
        </mxCell>
        <mxCell id="pfGqG3Exwj4eZ-6yCUfs-2" value="TTL-&amp;gt; RS485" style="rounded=0;whiteSpace=wrap;html=1;" vertex="1" parent="1">
          <mxGeometry x="470" y="410" width="120" height="60" as="geometry" />
        </mxCell>
        <mxCell id="pfGqG3Exwj4eZ-6yCUfs-4" value="Level shifter" style="rounded=0;whiteSpace=wrap;html=1;" vertex="1" parent="1">
          <mxGeometry x="600" y="410" width="120" height="60" as="geometry" />
        </mxCell>
        <mxCell id="pfGqG3Exwj4eZ-6yCUfs-7" value="&lt;b&gt;&lt;font style=&quot;font-size: 20px;&quot;&gt;Doosje Voeding&lt;/font&gt;&lt;/b&gt;" style="text;html=1;align=center;verticalAlign=middle;whiteSpace=wrap;rounded=0;" vertex="1" parent="1">
          <mxGeometry x="510" y="670" width="160" height="40" as="geometry" />
        </mxCell>
        <mxCell id="pfGqG3Exwj4eZ-6yCUfs-8" value="BodemTemperatuursensor" style="rounded=0;whiteSpace=wrap;html=1;" vertex="1" parent="1">
          <mxGeometry x="360" y="200" width="150" height="70" as="geometry" />
        </mxCell>
        <mxCell id="pfGqG3Exwj4eZ-6yCUfs-9" value="Omgevingstemp./Vochsensor" style="rounded=0;whiteSpace=wrap;html=1;" vertex="1" parent="1">
          <mxGeometry x="360" y="100" width="160" height="80" as="geometry" />
        </mxCell>
        <mxCell id="pfGqG3Exwj4eZ-6yCUfs-10" value="Lichtsensor" style="rounded=0;whiteSpace=wrap;html=1;" vertex="1" parent="1">
          <mxGeometry x="550" y="190" width="130" height="80" as="geometry" />
        </mxCell>
        <mxCell id="pfGqG3Exwj4eZ-6yCUfs-12" value="CO2 sensor" style="rounded=0;whiteSpace=wrap;html=1;" vertex="1" parent="1">
          <mxGeometry x="710" y="105" width="120" height="60" as="geometry" />
        </mxCell>
        <mxCell id="pfGqG3Exwj4eZ-6yCUfs-13" value="Bodemvochtsensor" style="rounded=0;whiteSpace=wrap;html=1;" vertex="1" parent="1">
          <mxGeometry x="550" y="105" width="130" height="70" as="geometry" />
        </mxCell>
        <mxCell id="pfGqG3Exwj4eZ-6yCUfs-14" value="NPK sensor" style="rounded=0;whiteSpace=wrap;html=1;" vertex="1" parent="1">
          <mxGeometry x="710" y="200" width="120" height="60" as="geometry" />
        </mxCell>
        <mxCell id="pfGqG3Exwj4eZ-6yCUfs-28" style="edgeStyle=orthogonalEdgeStyle;rounded=0;orthogonalLoop=1;jettySize=auto;html=1;exitX=0.5;exitY=0;exitDx=0;exitDy=0;entryX=0.5;entryY=1;entryDx=0;entryDy=0;" edge="1" parent="1" source="pfGqG3Exwj4eZ-6yCUfs-23" target="pfGqG3Exwj4eZ-6yCUfs-24">
          <mxGeometry relative="1" as="geometry" />
        </mxCell>
        <mxCell id="pfGqG3Exwj4eZ-6yCUfs-23" value="" style="rounded=0;whiteSpace=wrap;html=1;fillColor=none;" vertex="1" parent="1">
          <mxGeometry x="450" y="390" width="290" height="270" as="geometry" />
        </mxCell>
        <mxCell id="pfGqG3Exwj4eZ-6yCUfs-24" value="" style="rounded=0;whiteSpace=wrap;html=1;fillColor=none;" vertex="1" parent="1">
          <mxGeometry x="340" y="80" width="510" height="220" as="geometry" />
        </mxCell>
        <mxCell id="pfGqG3Exwj4eZ-6yCUfs-25" value="&lt;b&gt;&lt;font style=&quot;font-size: 20px;&quot;&gt;Doosje sensors&lt;/font&gt;&lt;/b&gt;" style="text;html=1;align=center;verticalAlign=middle;whiteSpace=wrap;rounded=0;" vertex="1" parent="1">
          <mxGeometry x="475" y="40" width="220" height="30" as="geometry" />
        </mxCell>
        <mxCell id="pfGqG3Exwj4eZ-6yCUfs-29" value="Voeding" style="rounded=0;whiteSpace=wrap;html=1;" vertex="1" parent="1">
          <mxGeometry x="80" y="490" width="140" height="90" as="geometry" />
        </mxCell>
        <mxCell id="pfGqG3Exwj4eZ-6yCUfs-30" style="edgeStyle=orthogonalEdgeStyle;rounded=0;orthogonalLoop=1;jettySize=auto;html=1;exitX=1;exitY=0.5;exitDx=0;exitDy=0;entryX=0.007;entryY=0.537;entryDx=0;entryDy=0;entryPerimeter=0;" edge="1" parent="1" source="pfGqG3Exwj4eZ-6yCUfs-29" target="pfGqG3Exwj4eZ-6yCUfs-23">
          <mxGeometry relative="1" as="geometry" />
        </mxCell>
        <mxCell id="pfGqG3Exwj4eZ-6yCUfs-31" value="" style="endArrow=none;dashed=1;html=1;rounded=0;" edge="1" parent="1">
          <mxGeometry width="50" height="50" relative="1" as="geometry">
            <mxPoint x="745" y="520" as="sourcePoint" />
            <mxPoint x="960" y="520" as="targetPoint" />
          </mxGeometry>
        </mxCell>
        <mxCell id="pfGqG3Exwj4eZ-6yCUfs-32" value="Home assistent" style="rounded=0;whiteSpace=wrap;html=1;" vertex="1" parent="1">
          <mxGeometry x="960" y="480" width="140" height="70" as="geometry" />
        </mxCell>
      </root>
    </mxGraphModel>
  </diagram>
</mxfile>
